<svg width="40" height="38" viewBox="0 0 40 38" fill="none" xmlns="http://www.w3.org/2000/svg">
<path d="M35.9923 16.5938C33.7869 16.5938 31.9924 18.3883 31.9924 20.5937V24.9986C31.3389 24.812 30.6575 24.7526 29.9842 24.8213V18.4496H30.3844C30.8167 18.4496 31.1663 18.0984 31.1663 17.6669V13.1047C31.1663 12.6731 30.8165 12.3228 30.3844 12.3228H25.885L26.9617 5.58952C26.9907 5.40709 26.9403 5.23526 26.8594 5.08642C26.8594 5.07712 26.8625 5.06885 26.8625 5.05955C26.8625 2.17923 20.1316 0.671753 13.4832 0.671753C6.83475 0.671753 0.104649 2.17923 0.104649 5.05981C0.104649 5.06291 0.106974 5.06575 0.106974 5.06885C0.0237718 5.2195 -0.021447 5.39107 0.0100769 5.57298L4.82032 34.1902C4.81877 34.2054 4.81128 34.2204 4.81128 34.2328C4.81128 36.6765 10.2597 37.3286 13.4832 37.3286C16.5247 37.3286 20.5105 36.7878 21.7582 35.2682C21.7613 35.2648 21.7642 35.2648 21.7673 35.262L21.7688 35.2589C21.7719 35.2589 21.7719 35.2589 21.7719 35.2558C21.7786 35.2499 21.7786 35.2421 21.7851 35.2362C21.8401 35.1659 21.8745 35.0863 21.9156 35.0116H29.2038C29.3353 35.0116 29.4498 34.9718 29.5614 34.9137C29.8759 34.9747 30.1997 35.0116 30.5296 35.0116C31.6658 35.0116 32.7319 34.6266 33.6223 33.9514C34.3066 34.4602 35.1283 34.7488 35.9988 34.7488C38.2042 34.7488 40.0003 32.9558 40.0003 30.7502V20.5909C39.9922 18.3886 38.2008 16.5938 35.9923 16.5938ZM35.9923 18.1578C37.3347 18.1578 38.43 19.2501 38.43 20.594V24.7239H33.5593V20.594C33.5577 19.2501 34.6515 18.1578 35.9923 18.1578ZM33.0769 27.3554C34.2712 28.5711 34.4148 30.4298 33.5257 31.8044L28.6354 26.8316C29.1974 26.4805 29.8449 26.2864 30.5232 26.2864C31.4929 26.2877 32.4001 26.6634 33.0769 27.3554ZM28.4199 20.5971H20.1924C19.7609 20.5971 19.4105 20.9482 19.4105 21.379C19.4105 21.8097 19.7609 22.1609 20.1924 22.1609H28.4199V23.7159H22.3779C21.9471 23.7159 21.5967 24.0671 21.5967 24.4978C21.5967 24.9283 21.9471 25.2794 22.3779 25.2794H28.2917C27.7938 25.5102 27.3235 25.8017 26.9189 26.1991C26.7189 26.3947 26.5506 26.6159 26.3871 26.8345H22.3779C21.9471 26.8345 21.5967 27.1856 21.5967 27.6164C21.5967 28.0487 21.9471 28.3983 22.3779 28.3983H25.6189C25.4814 28.8595 25.3868 29.3329 25.3837 29.8249C25.3837 29.8693 25.3959 29.9104 25.3974 29.9548H22.3779C21.9471 29.9548 21.5967 30.3047 21.5967 30.7365C21.5967 31.169 21.9471 31.5186 22.3779 31.5186H25.6724C25.9137 32.2318 26.2954 32.8915 26.8362 33.4476H16.1245V18.4496H28.4186L28.4199 20.5971ZM29.6051 16.8847H14.9439V13.8868H29.6051V16.8847ZM13.4814 2.23556C21.1278 2.23556 25.2967 4.10117 25.2967 5.05955C25.2967 6.01871 21.1278 7.88432 13.4814 7.88432C5.83658 7.88432 1.66689 6.01871 1.66689 5.05955C1.6687 4.10142 5.83813 2.23556 13.4814 2.23556ZM6.37817 34.2359C6.38282 34.1778 6.39729 34.1199 6.38411 34.0587L1.89686 7.36831C4.33971 8.73986 8.92851 9.44838 13.4829 9.44838C18.0511 9.44838 22.6605 8.73676 25.0967 7.3559L24.3024 12.3228H14.1604C13.7305 12.3228 13.3785 12.6731 13.3785 13.1047V17.6666C13.3785 18.0981 13.7305 18.4493 14.1604 18.4493H14.5607V34.2266C14.5607 34.6605 14.9126 35.0085 15.3426 35.0085H19.1823C17.9689 35.4209 16.026 35.763 13.4816 35.7646C8.85228 35.7664 6.52985 34.6636 6.37817 34.2359ZM27.9741 32.377C27.3036 31.6974 26.9385 30.7946 26.9475 29.8404C26.9553 29.1515 27.1599 28.4965 27.5248 27.9282L32.4092 32.8936C31.0286 33.7227 29.1258 33.5488 27.9741 32.377ZM35.9923 33.185C35.537 33.185 35.105 33.0535 34.7231 32.8199C36.1174 30.836 35.9559 28.0869 34.2117 26.2846H38.4269V30.7504C38.4284 32.0946 37.3362 33.185 35.9923 33.185Z" fill="#28868A"/>
</svg>
