<svg width="40" height="40" viewBox="0 0 40 40" fill="none" xmlns="http://www.w3.org/2000/svg">
<path d="M39.375 21.2881C39.375 18.6887 38.4681 16.195 36.8281 14.1937C37.2513 13.5206 37.5 12.7268 37.5 11.875C37.5 9.55496 35.6825 7.65559 33.3975 7.51371L33.3838 7.49996L36.5088 4.37496L32.5 0.366211L29.375 3.49121L28.75 2.86621L25.5112 6.10496C22.9794 2.66059 18.9875 0.624961 14.6838 0.624961H14.0662C6.65438 0.624961 0.625 6.65434 0.625 14.0662C0.625 17.6568 2.02312 21.0325 4.56187 23.5706L7.16563 26.1743C8.06813 27.0768 8.61063 28.2425 8.72563 29.4981C8.01188 29.7631 7.5 30.445 7.5 31.25C7.5 32.1143 8.09063 32.8368 8.8875 33.0525C8.80062 33.2687 8.75 33.5031 8.75 33.75C8.75 34.5637 9.27437 35.2512 10 35.51V36.25C10 37.9731 11.4019 39.375 13.125 39.375H15.625C17.3481 39.375 18.75 37.9731 18.75 36.25V35.51C19.4756 35.2512 20 34.5637 20 33.75C20 33.5031 19.9494 33.2687 19.8625 33.0525C20.6594 32.8362 21.25 32.1143 21.25 31.25C21.25 30.445 20.7381 29.7631 20.0244 29.4975C20.1363 28.2756 20.6562 27.1412 21.5156 26.25H25.9912L28.0169 28.2756L25.3269 35H39.375V27.5H37.4944C38.7119 25.6681 39.375 23.4968 39.375 21.2881ZM35.9494 27.5H31.4325C33.3338 25.2393 34.375 22.4131 34.375 19.4243C34.375 18.3212 34.2238 17.2312 33.9394 16.1712C34.7219 16.0231 35.4294 15.665 36.0056 15.1593C37.3731 16.9062 38.125 19.0537 38.125 21.2887C38.125 23.5375 37.3525 25.7431 35.9494 27.5ZM28.7638 11.6025L26.875 13.4912L23.3838 9.99996L28.75 4.63371L31.8162 7.69996C30.125 8.23183 28.8781 9.76621 28.7638 11.6025ZM22.5 10.8837L25.9912 14.375L25 15.3662L21.5088 11.875L22.5 10.8837ZM28.9506 13.1837C29.4631 14.8143 30.9056 16.0356 32.6537 16.2237C32.9606 17.2625 33.125 18.3362 33.125 19.4243C33.125 20.48 32.9731 21.5106 32.695 22.5H25.1463C27.0738 20.1181 28.125 17.1737 28.125 14.0662C28.125 14.0475 28.1244 14.0287 28.1244 14.0093L28.9506 13.1837ZM36.25 11.875C36.25 13.5981 34.8481 15 33.125 15C31.4019 15 30 13.5981 30 11.875C30 10.1518 31.4019 8.74996 33.125 8.74996C34.8481 8.74996 36.25 10.1518 36.25 11.875ZM32.5 2.13371L34.7412 4.37496L32.5 6.61621L30.2588 4.37496L32.5 2.13371ZM24.6144 7.00183L19.7413 11.875L25 17.1337L26.8088 15.325C26.5338 18.0225 25.3712 20.5237 23.4737 22.5H18.125V23.125C18.125 24.4337 18.9356 25.5531 20.08 26.0181C19.345 26.9975 18.8944 28.1493 18.7806 29.375H18.69C18.44 27.5606 17.38 25.9518 15.8406 25.0006C17.6219 23.9075 18.75 21.9556 18.75 19.7975V17.7025C18.75 15.545 17.6225 13.5931 15.8413 12.5C17.6225 11.4068 18.75 9.45496 18.75 7.29746V2.57496C21.0863 3.39934 23.1375 4.92746 24.6144 7.00183ZM17.5 5.62496H11.25V4.37496H17.5V5.62496ZM17.5 6.87496V7.29746C17.5 7.57871 17.4719 7.85496 17.4256 8.12496H11.325C11.2781 7.85433 11.25 7.57871 11.25 7.29746V6.87496H17.5ZM17.025 9.37496C16.5 10.4825 15.565 11.3675 14.375 11.8237C13.1844 11.3675 12.2494 10.4831 11.725 9.37496H17.025ZM14.375 13.1762C15.5656 13.6325 16.5006 14.5168 17.025 15.625H11.725C12.2494 14.5175 13.1844 13.6331 14.375 13.1762ZM11.25 17.7025C11.25 17.4212 11.2781 17.145 11.3244 16.875H17.425C17.4719 17.1456 17.5 17.4212 17.5 17.7025V18.125H11.25V17.7025ZM17.5 19.375V19.7975C17.5 20.0787 17.4719 20.355 17.4256 20.625H11.325C11.2781 20.3543 11.25 20.0787 11.25 19.7975V19.375H17.5ZM17.025 21.875C16.5 22.9825 15.565 23.8675 14.375 24.3237C13.1844 23.8675 12.2494 22.9831 11.725 21.875H17.025ZM14.375 25.6762C15.065 25.9412 15.6713 26.3531 16.1625 26.875H12.5875C13.0787 26.3531 13.685 25.9412 14.375 25.6762ZM11.7338 28.125H17.0169C17.205 28.5193 17.3463 28.9368 17.4225 29.375H11.3281C11.4044 28.9368 11.545 28.5193 11.7338 28.125ZM14.6838 1.87496C15.645 1.87496 16.5881 1.99121 17.5 2.20684V3.12496H11.25V2.21621C12.1556 2.00121 13.0956 1.87496 14.0662 1.87496H14.6838ZM5.44563 22.6868C3.14313 20.3837 1.875 17.3225 1.875 14.0662C1.875 8.77121 5.27375 4.26684 10 2.58684V7.29683C10 9.45434 11.1275 11.4062 12.9087 12.4993C11.1275 13.5931 10 15.545 10 17.7025V19.7975C10 21.9556 11.1281 23.9075 12.91 25.0006C11.3706 25.9518 10.3106 27.5606 10.0606 29.375H9.97C9.8275 27.8318 9.15938 26.4 8.05 25.2906L5.44563 22.6868ZM15.625 38.125H13.125C12.0913 38.125 11.25 37.2837 11.25 36.25V35.625H17.5V36.25C17.5 37.2837 16.6588 38.125 15.625 38.125ZM18.125 34.375H10.625C10.28 34.375 10 34.095 10 33.75C10 33.405 10.28 33.125 10.625 33.125H18.125C18.47 33.125 18.75 33.405 18.75 33.75C18.75 34.095 18.47 34.375 18.125 34.375ZM19.375 31.875H18.125H10.625H9.375C9.03 31.875 8.75 31.595 8.75 31.25C8.75 30.905 9.03 30.625 9.375 30.625H19.375C19.72 30.625 20 30.905 20 31.25C20 31.595 19.72 31.875 19.375 31.875ZM21.25 25C20.435 25 19.74 24.4775 19.4819 23.75H32.2725C31.7106 25.1112 30.88 26.3612 29.8075 27.4343L29.7412 27.5H29.0088L26.5088 25H21.25ZM38.125 33.75H27.1731L29.1731 28.75H38.125V33.75Z" fill="#28868A"/>
</svg>
