<svg width="40" height="40" viewBox="0 0 40 40" fill="none" xmlns="http://www.w3.org/2000/svg">
<path d="M36.875 1.25H24.375C23.8777 1.25 23.4008 1.44754 23.0492 1.79917C22.6975 2.15081 22.5 2.62772 22.5 3.125V3.76187C21.5723 3.06151 20.4677 2.63373 19.3103 2.5266C18.1528 2.41947 16.9885 2.63723 15.948 3.15542C14.9075 3.67361 14.0321 4.47169 13.4202 5.45998C12.8084 6.44828 12.4842 7.58762 12.4842 8.75C12.4842 9.91238 12.8084 11.0517 13.4202 12.04C14.0321 13.0283 14.9075 13.8264 15.948 14.3446C16.9885 14.8628 18.1528 15.0805 19.3103 14.9734C20.4677 14.8663 21.5723 14.4385 22.5 13.7381V19.375C22.5 19.8723 22.6975 20.3492 23.0492 20.7008C23.4008 21.0525 23.8777 21.25 24.375 21.25H26.25V23.75C26.25 23.9158 26.3158 24.0747 26.4331 24.1919C26.5503 24.3092 26.7092 24.375 26.875 24.375H27.5V25C27.5 25.4973 27.6975 25.9742 28.0492 26.3258C28.4008 26.6775 28.8777 26.875 29.375 26.875H31.25C31.4158 26.875 31.5747 26.9408 31.6919 27.0581C31.8092 27.1753 31.875 27.3342 31.875 27.5V28.75H14.5225L12.3406 27.6594L11.1844 25.3469C11.1326 25.2427 11.0529 25.1551 10.954 25.0938C10.8552 25.0326 10.7413 25.0001 10.625 25H8.125C7.62772 25 7.1508 25.1975 6.79917 25.5492C6.44754 25.9008 6.25 26.3777 6.25 26.875V27.5H3.05812C2.81159 27.4874 2.56523 27.5279 2.33565 27.6186C2.10607 27.7093 1.89862 27.8482 1.72726 28.0259C1.55591 28.2036 1.42464 28.416 1.34231 28.6487C1.25998 28.8814 1.2285 29.1291 1.25 29.375C1.26372 29.8314 1.44582 30.2667 1.76125 30.5969C1.43726 30.9366 1.25455 31.3868 1.25014 31.8562C1.24573 32.3257 1.41995 32.7792 1.7375 33.125C1.55325 33.3261 1.41556 33.5653 1.33422 33.8256C1.25288 34.086 1.22989 34.361 1.26688 34.6313C1.30387 34.9015 1.39994 35.1602 1.54825 35.3891C1.69656 35.618 1.89348 35.8114 2.125 35.9556C1.96302 36.2351 1.87684 36.552 1.875 36.875C1.875 37.3723 2.07254 37.8492 2.42417 38.2008C2.7758 38.5525 3.25272 38.75 3.75 38.75H11.875C11.9717 38.7511 12.0673 38.7297 12.1544 38.6875L14.5225 37.5H38.125C38.2908 37.5 38.4497 37.4342 38.5669 37.3169C38.6842 37.1997 38.75 37.0408 38.75 36.875V29.375C38.75 29.2092 38.6842 29.0503 38.5669 28.9331C38.4497 28.8158 38.2908 28.75 38.125 28.75H33.125V27.5C33.125 27.0027 32.9275 26.5258 32.5758 26.1742C32.2242 25.8225 31.7473 25.625 31.25 25.625H29.375C29.2092 25.625 29.0503 25.5592 28.9331 25.4419C28.8159 25.3247 28.75 25.1658 28.75 25V24.375H29.375C29.5408 24.375 29.6997 24.3092 29.8169 24.1919C29.9342 24.0747 30 23.9158 30 23.75V21.25H31.25V22.5C31.25 22.6658 31.3159 22.8247 31.4331 22.9419C31.5503 23.0592 31.7092 23.125 31.875 23.125H34.375C34.5408 23.125 34.6997 23.0592 34.8169 22.9419C34.9342 22.8247 35 22.6658 35 22.5V21.25H36.875C37.3723 21.25 37.8492 21.0525 38.2008 20.7008C38.5525 20.3492 38.75 19.8723 38.75 19.375V3.125C38.75 2.62772 38.5525 2.15081 38.2008 1.79917C37.8492 1.44754 37.3723 1.25 36.875 1.25ZM30.625 30H31.875V31.875C31.875 32.0408 31.8092 32.1997 31.6919 32.3169C31.5747 32.4341 31.4158 32.5 31.25 32.5H30.625V30ZM26.875 33.75H25.1475L24.375 33.3637V32.8862L25.1475 32.5H26.875V33.75ZM26.875 31.25H25C24.9033 31.2489 24.8077 31.2703 24.7206 31.3125L23.4706 31.9375C23.3663 31.9896 23.2786 32.07 23.2175 32.1694C23.1564 32.2688 23.1244 32.3833 23.125 32.5H21.875V31.875C21.875 31.7092 21.8092 31.5503 21.6919 31.4331C21.5747 31.3158 21.4158 31.25 21.25 31.25H18.75C18.5842 31.25 18.4253 31.3158 18.3081 31.4331C18.1908 31.5503 18.125 31.7092 18.125 31.875V34.375C18.125 34.5408 18.1908 34.6997 18.3081 34.8169C18.4253 34.9342 18.5842 35 18.75 35H21.25C21.4158 35 21.5747 34.9342 21.6919 34.8169C21.8092 34.6997 21.875 34.5408 21.875 34.375V33.75H23.125C23.1244 33.8667 23.1564 33.9812 23.2175 34.0806C23.2786 34.18 23.3663 34.2603 23.4706 34.3125L24.7206 34.9375C24.8077 34.9797 24.9033 35.0011 25 35H26.875V36.25H14.375C14.2783 36.2489 14.1827 36.2703 14.0956 36.3125L11.7275 37.5H3.75C3.58424 37.5 3.42527 37.4342 3.30806 37.3169C3.19085 37.1997 3.125 37.0408 3.125 36.875C3.125 36.7092 3.19085 36.5503 3.30806 36.4331C3.42527 36.3158 3.58424 36.25 3.75 36.25H8.125V35H3.125C2.95924 35 2.80027 34.9342 2.68306 34.8169C2.56585 34.6997 2.5 34.5408 2.5 34.375C2.5 34.2092 2.56585 34.0503 2.68306 33.9331C2.80027 33.8158 2.95924 33.75 3.125 33.75H8.75V32.5H3.125C2.95924 32.5 2.80027 32.4341 2.68306 32.3169C2.56585 32.1997 2.5 32.0408 2.5 31.875C2.5 31.7092 2.56585 31.5503 2.68306 31.4331C2.80027 31.3158 2.95924 31.25 3.125 31.25H9.375V30H3.125C2.96767 29.9764 2.82208 29.9029 2.70958 29.7904C2.59709 29.6779 2.52363 29.5323 2.5 29.375C2.5 28.8544 2.71375 28.75 3.05812 28.75H8.75V27.5H7.5V26.875C7.5 26.7092 7.56585 26.5503 7.68306 26.4331C7.80027 26.3158 7.95924 26.25 8.125 26.25H10.2387L11.3156 28.4044C11.3761 28.5256 11.4744 28.6239 11.5956 28.6844L14.0956 29.9344C14.1824 29.9776 14.278 30.0001 14.375 30H26.875V31.25ZM20.625 32.5V33.75H19.375V32.5H20.625ZM29.375 36.25H28.125V30H29.375V36.25ZM33.125 31.875V30H37.5V36.25H30.625V33.75H31.25C31.7473 33.75 32.2242 33.5525 32.5758 33.2008C32.9275 32.8492 33.125 32.3723 33.125 31.875ZM18.75 13.75C17.7611 13.75 16.7944 13.4568 15.9721 12.9073C15.1499 12.3579 14.509 11.577 14.1306 10.6634C13.7522 9.74979 13.6531 8.74445 13.8461 7.77455C14.039 6.80464 14.5152 5.91373 15.2145 5.21447C15.9137 4.5152 16.8046 4.039 17.7745 3.84607C18.7445 3.65315 19.7498 3.75216 20.6634 4.1306C21.577 4.50904 22.3579 5.1499 22.9073 5.97215C23.4568 6.79439 23.75 7.76109 23.75 8.75C23.7485 10.0756 23.2213 11.3465 22.2839 12.2839C21.3465 13.2212 20.0756 13.7485 18.75 13.75ZM37.5 19.375C37.5 19.5408 37.4342 19.6997 37.3169 19.8169C37.1997 19.9342 37.0408 20 36.875 20H34.375C34.2092 20 34.0503 20.0658 33.9331 20.1831C33.8159 20.3003 33.75 20.4592 33.75 20.625V21.875H32.5V20.625C32.5 20.4592 32.4342 20.3003 32.3169 20.1831C32.1997 20.0658 32.0408 20 31.875 20H29.375C29.2092 20 29.0503 20.0658 28.9331 20.1831C28.8159 20.3003 28.75 20.4592 28.75 20.625V23.125H27.5V20.625C27.5 20.4592 27.4342 20.3003 27.3169 20.1831C27.1997 20.0658 27.0408 20 26.875 20H24.375C24.2092 20 24.0503 19.9342 23.9331 19.8169C23.8158 19.6997 23.75 19.5408 23.75 19.375V12.4837C24.5612 11.408 25 10.0973 25 8.75C25 7.40267 24.5612 6.09199 23.75 5.01625V3.125C23.75 2.95924 23.8158 2.80027 23.9331 2.68306C24.0503 2.56585 24.2092 2.5 24.375 2.5H36.875C37.0408 2.5 37.1997 2.56585 37.3169 2.68306C37.4342 2.80027 37.5 2.95924 37.5 3.125V19.375Z" fill="#28868A"/>
<path d="M25.625 18.7502H35.625C35.7908 18.7502 35.9497 18.6844 36.0669 18.5672C36.1842 18.45 36.25 18.291 36.25 18.1252V4.37524C36.25 4.20948 36.1842 4.05051 36.0669 3.9333C35.9497 3.81609 35.7908 3.75024 35.625 3.75024H25.625C25.4592 3.75024 25.3003 3.81609 25.1831 3.9333C25.0658 4.05051 25 4.20948 25 4.37524V18.1252C25 18.291 25.0658 18.45 25.1831 18.5672C25.3003 18.6844 25.4592 18.7502 25.625 18.7502ZM26.25 5.00024H35V6.31899C34.6859 6.3784 34.3822 6.48369 34.0987 6.63149C33.7985 6.79132 33.4636 6.87491 33.1234 6.87491C32.7833 6.87491 32.4484 6.79132 32.1481 6.63149C31.6763 6.38757 31.153 6.26027 30.6219 6.26027C30.0908 6.26027 29.5674 6.38757 29.0956 6.63149C28.7961 6.7911 28.4619 6.87458 28.1225 6.87458C27.7831 6.87458 27.4489 6.7911 27.1494 6.63149C26.8664 6.48419 26.5634 6.37891 26.25 6.31899V5.00024ZM26.25 7.60024C26.3691 7.6441 26.4853 7.69524 26.5981 7.75337C27.0692 7.99763 27.5921 8.12512 28.1228 8.12512C28.6535 8.12512 29.1764 7.99763 29.6475 7.75337C29.9475 7.59392 30.2821 7.51053 30.6219 7.51053C30.9616 7.51053 31.2962 7.59392 31.5963 7.75337C32.068 7.9973 32.5914 8.12459 33.1225 8.12459C33.6536 8.12459 34.177 7.9973 34.6488 7.75337C34.7625 7.69489 34.8798 7.64354 35 7.59962V17.5002H26.25V7.60024Z" fill="#28868A"/>
<path d="M7.1025 7.61325C6.92839 7.43911 6.72167 7.30097 6.49417 7.20672C6.26666 7.11247 6.02282 7.06396 5.77656 7.06396C5.53031 7.06396 5.28646 7.11247 5.05896 7.20672C4.83145 7.30097 4.62474 7.43911 4.45062 7.61325L1.79938 10.2645C1.45783 10.6181 1.26884 11.0918 1.27311 11.5834C1.27738 12.075 1.47458 12.5453 1.82222 12.8929C2.16986 13.2406 2.64013 13.4377 3.13175 13.442C3.62337 13.4463 4.097 13.2573 4.45062 12.9158L5.335 13.8001L4.00875 15.1251C3.89158 15.2423 3.82576 15.4013 3.82576 15.567C3.82576 15.7327 3.89158 15.8917 4.00875 16.0089L5.77687 17.7764C5.89408 17.8935 6.05302 17.9594 6.21875 17.9594C6.38448 17.9594 6.54342 17.8935 6.66062 17.7764L7.1025 17.3345L11.9644 22.1964C12.0389 22.2568 12.1208 22.3074 12.2081 22.347L14.7194 23.1876L15.5 23.9645C15.7725 24.2397 16.1245 24.4226 16.5064 24.4873C16.8882 24.552 17.2808 24.4953 17.6287 24.3251L21.245 27.942L22.1287 27.0583L18.5125 23.4408C18.6783 23.0925 18.7326 22.7015 18.668 22.3213C18.6035 21.941 18.4233 21.5898 18.1519 21.3158L17.3712 20.5358L16.5344 18.0239C16.495 17.9362 16.4443 17.8541 16.3837 17.7795L11.5225 12.9183L11.9644 12.4764C12.0815 12.3592 12.1474 12.2002 12.1474 12.0345C12.1474 11.8688 12.0815 11.7098 11.9644 11.5926L10.1962 9.82513C10.079 9.70796 9.9201 9.64214 9.75437 9.64214C9.58865 9.64214 9.4297 9.70796 9.3125 9.82513L7.98687 11.1508L7.10312 10.267C7.27751 10.0928 7.41584 9.88595 7.5102 9.65825C7.60456 9.43055 7.65309 9.18648 7.65304 8.94C7.65298 8.69352 7.60432 8.44947 7.50986 8.22181C7.41539 7.99416 7.27696 7.78736 7.1025 7.61325ZM3.56687 12.032C3.44967 12.1492 3.29073 12.215 3.125 12.215C2.95927 12.215 2.80033 12.1492 2.68313 12.032C2.56615 11.9148 2.50045 11.756 2.50045 11.5904C2.50045 11.4249 2.56615 11.2661 2.68313 11.1489L5.33437 8.50013C5.39203 8.44043 5.46099 8.39282 5.53725 8.36006C5.6135 8.32731 5.69551 8.31007 5.7785 8.30935C5.86149 8.30862 5.94379 8.32444 6.0206 8.35586C6.09741 8.38729 6.16719 8.4337 6.22587 8.49238C6.28455 8.55106 6.33096 8.62085 6.36239 8.69766C6.39381 8.77447 6.40963 8.85677 6.40891 8.93975C6.40818 9.02274 6.39094 9.10475 6.35819 9.181C6.32543 9.25726 6.27782 9.32622 6.21812 9.38388L3.56687 12.032ZM5.33437 12.032L6.21875 11.1483L7.1025 12.032L6.21875 12.9164L5.33437 12.032ZM16.825 21.7551L17.2669 22.197C17.3266 22.2547 17.3742 22.3236 17.4069 22.3999C17.4397 22.4761 17.4569 22.5581 17.4577 22.6411C17.4584 22.7241 17.4426 22.8064 17.4111 22.8832C17.3797 22.96 17.3333 23.0298 17.2746 23.0885C17.2159 23.1472 17.1462 23.1936 17.0693 23.225C16.9925 23.2564 16.9102 23.2723 16.8272 23.2715C16.7443 23.2708 16.6622 23.2536 16.586 23.2208C16.5097 23.1881 16.4408 23.1404 16.3831 23.0808L15.9412 22.6389L16.825 21.7551ZM16.1094 20.702L14.8881 21.9233L13.5631 21.482L15.6681 19.3751L16.1094 20.702ZM11.5219 14.6839L10.6381 15.5676L11.5219 16.4514L12.4056 15.5676L13.29 16.4514L12.4062 17.3351L13.29 18.2189L14.1737 17.3351L15.0575 18.2189L12.4062 20.8714L7.98625 16.4514L10.6381 13.7995L11.5219 14.6839ZM9.75375 11.1483L10.6381 12.032L6.21875 16.4514L5.33437 15.5676L9.75375 11.1483Z" fill="#28868A"/>
<path d="M21.875 6.87561H20.625V5.62561C20.625 5.45985 20.5592 5.30088 20.4419 5.18367C20.3247 5.06646 20.1658 5.00061 20 5.00061H17.5C17.3342 5.00061 17.1753 5.06646 17.0581 5.18367C16.9408 5.30088 16.875 5.45985 16.875 5.62561V6.87561H15.625C15.4592 6.87561 15.3003 6.94146 15.1831 7.05867C15.0658 7.17588 15 7.33485 15 7.50061V10.0006C15 10.1664 15.0658 10.3253 15.1831 10.4426C15.3003 10.5598 15.4592 10.6256 15.625 10.6256H16.875V11.8756C16.875 12.0414 16.9408 12.2003 17.0581 12.3176C17.1753 12.4348 17.3342 12.5006 17.5 12.5006H20C20.1658 12.5006 20.3247 12.4348 20.4419 12.3176C20.5592 12.2003 20.625 12.0414 20.625 11.8756V10.6256H21.875C22.0408 10.6256 22.1997 10.5598 22.3169 10.4426C22.4342 10.3253 22.5 10.1664 22.5 10.0006V7.50061C22.5 7.33485 22.4342 7.17588 22.3169 7.05867C22.1997 6.94146 22.0408 6.87561 21.875 6.87561ZM21.25 9.37561H20C19.8342 9.37561 19.6753 9.44146 19.5581 9.55867C19.4408 9.67588 19.375 9.83485 19.375 10.0006V11.2506H18.125V10.0006C18.125 9.83485 18.0592 9.67588 17.9419 9.55867C17.8247 9.44146 17.6658 9.37561 17.5 9.37561H16.25V8.12561H17.5C17.6658 8.12561 17.8247 8.05976 17.9419 7.94255C18.0592 7.82534 18.125 7.66637 18.125 7.50061V6.25061H19.375V7.50061C19.375 7.66637 19.4408 7.82534 19.5581 7.94255C19.6753 8.05976 19.8342 8.12561 20 8.12561H21.25V9.37561Z" fill="#28868A"/>
<path d="M33.75 15H32.5V16.25H33.75V15Z" fill="#28868A"/>
<path d="M31.25 15H30V16.25H31.25V15Z" fill="#28868A"/>
</svg>
