<svg width="18" height="18" viewBox="0 0 18 18" fill="none" xmlns="http://www.w3.org/2000/svg">
<path d="M14.1892 17.772C13.4313 17.772 12.3666 17.4979 10.7724 16.6073C8.8337 15.5204 7.33417 14.5169 5.40598 12.5941C3.5469 10.7365 2.64221 9.53389 1.37604 7.23029C-0.0543778 4.62933 0.189461 3.26595 0.462032 2.68326C0.786633 1.98682 1.26577 1.57028 1.88507 1.15685C2.23683 0.926421 2.60908 0.728896 2.9971 0.566776C3.03593 0.550083 3.07204 0.534167 3.10427 0.519803C3.29646 0.433234 3.58767 0.302409 3.95654 0.442163C4.2027 0.534555 4.42247 0.72361 4.76648 1.06329C5.47199 1.75895 6.43608 3.30827 6.79174 4.06915C7.03053 4.58196 7.18856 4.92048 7.18895 5.30014C7.18895 5.74463 6.9653 6.08742 6.6939 6.45738C6.64303 6.52686 6.59256 6.59325 6.54363 6.65769C6.24815 7.04589 6.18331 7.15808 6.22602 7.3584C6.31261 7.76096 6.95831 8.95935 8.01948 10.018C9.08064 11.0766 10.2447 11.6814 10.6489 11.7676C10.8578 11.8123 10.9723 11.7447 11.373 11.4388C11.4305 11.3949 11.4895 11.3495 11.5513 11.3041C11.9652 10.9963 12.2921 10.7785 12.7262 10.7785H12.7285C13.1063 10.7785 13.4297 10.9423 13.9656 11.2125C14.6645 11.565 16.2607 12.5165 16.9607 13.2226C17.3013 13.5658 17.4911 13.7847 17.5839 14.0304C17.7237 14.4004 17.5921 14.6904 17.5063 14.8845C17.4919 14.9167 17.476 14.952 17.4593 14.9913C17.2959 15.3785 17.0971 15.7499 16.8656 16.1007C16.4529 16.718 16.0347 17.1959 15.3366 17.5208C14.9781 17.6903 14.5858 17.7762 14.1892 17.772Z" fill="white"/>
</svg>
