<svg width="40" height="40" viewBox="0 0 40 40" fill="none" xmlns="http://www.w3.org/2000/svg">
<g clip-path="url(#clip0)">
<path d="M37.2633 29.0855L32.3819 14.2963C32.5605 13.961 32.6553 13.585 32.6552 13.1944C32.6552 12.7775 32.5454 12.386 32.3541 12.0465L34.2386 8.15096C34.2413 8.14533 34.2432 8.13955 34.2458 8.13393C34.2473 8.13065 34.2494 8.12776 34.2508 8.12447L36.3428 3.35424C36.6134 2.78783 36.647 2.15096 36.437 1.55862C36.2253 0.961428 35.7927 0.485022 35.2188 0.217131L35.2189 0.217209C34.0679 -0.320291 32.6782 0.171975 32.1214 1.31471C32.1179 1.32182 32.1145 1.32901 32.1113 1.33619L29.3409 7.49018C29.232 7.73197 29.2532 8.01244 29.3972 8.23518C29.5411 8.45783 29.7882 8.59229 30.0533 8.59229L32.2894 8.59213L31.1266 10.9958C30.8727 10.9013 30.5982 10.8494 30.3118 10.8494H13.9433C12.6511 10.8494 11.5998 11.9015 11.5998 13.1947C11.5998 14.4879 12.6511 15.54 13.9433 15.54H27.7296L28.7367 18.5178C28.8445 18.8358 29.1414 19.049 29.4773 19.049C29.5616 19.049 29.646 19.0349 29.7273 19.0076C30.1351 18.8701 30.3546 18.4256 30.2172 18.0177C30.2172 18.0177 30.2172 18.0169 30.2163 18.0169L29.4285 15.54H30.3118C30.602 15.54 30.8839 15.487 31.1473 15.3866L35.7796 29.5756C35.807 29.6576 35.8203 29.7388 35.8203 29.824C35.8203 29.8519 35.8186 29.9263 35.8154 29.9964C35.6315 29.7234 35.4177 29.4693 35.1741 29.2417C34.7313 28.8278 34.2101 28.5139 33.6481 28.3134L32.4695 24.6783C32.3616 24.3611 32.0648 24.1478 31.7296 24.1478C31.6445 24.1478 31.5601 24.1612 31.4788 24.1885C31.2812 24.2557 31.121 24.3956 31.0288 24.5823C30.9366 24.7698 30.9226 24.9816 30.989 25.1792L31.9635 28.0615C31.9328 28.0629 31.9022 28.0632 31.8714 28.0653L5.90609 29.8202C4.06187 29.9449 2.61719 31.4918 2.61719 33.3419C2.61719 35.2881 4.19922 36.8716 6.14375 36.8716H7.69438V39.2382C7.69438 39.6587 8.04414 39.9996 8.47563 39.9996H31.9086C32.34 39.9996 32.6898 39.6587 32.6898 39.2382V36.8396C34.8732 36.5804 36.5723 34.7174 36.5723 32.4634C36.5723 32.1924 36.5457 31.9238 36.4966 31.6604C36.6797 31.5149 36.8409 31.3419 36.975 31.1451C37.2413 30.7537 37.382 30.2966 37.3828 29.8239C37.3828 29.5731 37.3421 29.3246 37.2633 29.0855ZM33.5303 1.99049C33.7189 1.61588 34.1776 1.45573 34.5579 1.63307C34.5579 1.63315 34.558 1.63315 34.558 1.63315C34.7493 1.72252 34.8937 1.88143 34.9643 2.0808C35.0351 2.28057 35.023 2.49549 34.9304 2.68604C34.9259 2.69526 34.9216 2.70455 34.9174 2.71393L33.0247 7.02947L31.2617 7.02963L33.5303 1.99049ZM13.1623 13.1946C13.1623 12.7631 13.5127 12.412 13.9433 12.412H30.3118C30.7424 12.412 31.0927 12.763 31.0927 13.1946C31.0927 13.4038 31.0114 13.6005 30.8637 13.7483C30.7162 13.896 30.5202 13.9773 30.3118 13.9773H13.9433C13.5127 13.9774 13.1623 13.6262 13.1623 13.1946ZM9.2568 38.4769V36.8716H31.1273V38.4769H9.2568ZM32.1683 35.309H6.14375C5.06078 35.309 4.17969 34.4266 4.17969 33.342C4.17969 32.3109 4.9843 31.4488 6.01148 31.3793L31.9769 29.6242C32.0431 29.6197 32.1089 29.6175 32.1745 29.6175C32.8948 29.6175 33.5748 29.8855 34.1072 30.3831C34.6892 30.9272 35.0098 31.666 35.0098 32.4634C35.0098 34.0324 33.7352 35.309 32.1683 35.309Z" fill="#28868A"/>
<path d="M30.6031 22.3801C30.6875 22.3801 30.7719 22.3661 30.8531 22.3388C31.0508 22.2716 31.211 22.1317 31.3031 21.945C31.3961 21.7583 31.4102 21.5458 31.343 21.3481C31.236 21.0309 30.9383 20.8176 30.6031 20.8176C30.518 20.8176 30.4336 20.8309 30.3531 20.8583C30.1547 20.9254 29.9953 21.0654 29.9032 21.2521C29.8102 21.4396 29.7961 21.6513 29.8633 21.849C29.9703 22.1668 30.268 22.3801 30.6031 22.3801Z" fill="#28868A"/>
<path d="M8.46406 32.6806C8.04766 32.7041 7.72344 33.0479 7.72578 33.4643C7.72578 33.4776 7.72656 33.4917 7.72734 33.5041C7.75 33.9183 8.09219 34.2425 8.50625 34.2425C8.52109 34.2425 8.53594 34.2417 8.55 34.2409C8.96641 34.2183 9.29063 33.8737 9.28828 33.458C9.28828 33.4448 9.28828 33.4315 9.2875 33.4174C9.26328 32.9893 8.89375 32.6572 8.46406 32.6806Z" fill="#28868A"/>
<path d="M31.8649 31.3813C31.6571 31.393 31.4657 31.4852 31.3265 31.6408C31.1867 31.7962 31.1171 31.9962 31.1281 32.2048C31.1516 32.619 31.4938 32.9432 31.9078 32.9432C31.9225 32.9432 31.9375 32.9424 31.9515 32.9416C32.3821 32.9181 32.7125 32.5486 32.689 32.1181C32.6648 31.69 32.2961 31.3564 31.8649 31.3813Z" fill="#28868A"/>
<path d="M28.3546 31.5768L11.9742 32.4863C11.7657 32.4979 11.5742 32.5893 11.4352 32.7449C11.2961 32.9011 11.2258 33.1012 11.2375 33.3098C11.2602 33.7231 11.6024 34.0473 12.0164 34.0473C12.0313 34.0473 12.0461 34.0473 12.061 34.0465L28.4414 33.1371C28.65 33.1254 28.8414 33.0332 28.9805 32.8777C29.1195 32.7222 29.1899 32.5214 29.1781 32.3136C29.1547 31.8846 28.786 31.5518 28.3546 31.5768Z" fill="#28868A"/>
</g>
<defs>
<clipPath id="clip0">
<rect width="40" height="40" fill="white"/>
</clipPath>
</defs>
</svg>
