<svg width="18" height="17" viewBox="0 0 18 17" fill="none" xmlns="http://www.w3.org/2000/svg">
<path d="M6.91666 1.33333C7.95295 1.33331 8.9675 1.63055 9.83994 2.1898C10.7124 2.74905 11.4061 3.54682 11.8387 4.48847C12.2714 5.43013 12.4249 6.47613 12.2809 7.50237C12.137 8.52862 11.7017 9.49204 11.0267 10.2783L15.73 14.9817L15.1408 15.5708L10.4367 10.8667C9.77322 11.434 8.98248 11.8326 8.1318 12.0285C7.28112 12.2244 6.39569 12.2118 5.55093 11.9918C4.70617 11.7717 3.9271 11.3508 3.28008 10.7648C2.63306 10.1788 2.13725 9.4451 1.83488 8.62619C1.53252 7.80728 1.43255 6.92742 1.5435 6.06156C1.65445 5.19569 1.97302 4.36946 2.47209 3.65325C2.97116 2.93703 3.63594 2.35205 4.40981 1.94811C5.18368 1.54418 6.04371 1.33326 6.91666 1.33333ZM6.91666 2.16666C5.70108 2.16666 4.53529 2.64955 3.67575 3.50909C2.81621 4.36863 2.33332 5.53442 2.33332 6.74999C2.33332 7.96557 2.81621 9.13136 3.67575 9.9909C4.53529 10.8504 5.70108 11.3333 6.91666 11.3333C8.13223 11.3333 9.29802 10.8504 10.1576 9.9909C11.0171 9.13136 11.5 7.96557 11.5 6.74999C11.5 5.53442 11.0171 4.36863 10.1576 3.50909C9.29802 2.64955 8.13223 2.16666 6.91666 2.16666Z" fill="#C8C6C6" stroke="#C8C6C6" stroke-width="2"/>
</svg>
