<svg style="display:none" version="1.1" baseProfile="full"
  xmlns="http://www.w3.org/2000/svg"
  xmlns:xlink="http://www.w3.org/1999/xlink"
  xmlns:ev="http://www.w3.org/2001/xml-events">

  <symbol id="search__icon" viewBox="0 0 18 17">
    <path d="M6.91666 1.33333C7.95295 1.33331 8.9675 1.63055 9.83994 2.1898C10.7124 2.74905 11.4061 3.54682 11.8387 4.48847C12.2714 5.43013 12.4249 6.47613 12.2809 7.50237C12.137 8.52862 11.7017 9.49204 11.0267 10.2783L15.73 14.9817L15.1408 15.5708L10.4367 10.8667C9.77322 11.434 8.98248 11.8326 8.1318 12.0285C7.28112 12.2244 6.39569 12.2118 5.55093 11.9918C4.70617 11.7717 3.9271 11.3508 3.28008 10.7648C2.63306 10.1788 2.13725 9.4451 1.83488 8.62619C1.53252 7.80728 1.43255 6.92742 1.5435 6.06156C1.65445 5.19569 1.97302 4.36946 2.47209 3.65325C2.97116 2.93703 3.63594 2.35205 4.40981 1.94811C5.18368 1.54418 6.04371 1.33326 6.91666 1.33333ZM6.91666 2.16666C5.70108 2.16666 4.53529 2.64955 3.67575 3.50909C2.81621 4.36863 2.33332 5.53442 2.33332 6.74999C2.33332 7.96557 2.81621 9.13136 3.67575 9.9909C4.53529 10.8504 5.70108 11.3333 6.91666 11.3333C8.13223 11.3333 9.29802 10.8504 10.1576 9.9909C11.0171 9.13136 11.5 7.96557 11.5 6.74999C11.5 5.53442 11.0171 4.36863 10.1576 3.50909C9.29802 2.64955 8.13223 2.16666 6.91666 2.16666Z" stroke="#C8C6C6" stroke-width="2"/>

  </symbol>

  <symbol id="adress__icon" viewBox="0 0 14 18">
    <path d="M7 0.25C3.54961 0.25 0.75 2.76992 0.75 5.875C0.75 10.875 7 17.75 7 17.75C7 17.75 13.25 10.875 13.25 5.875C13.25 2.76992 10.4504 0.25 7 0.25ZM7 9C6.50555 9 6.0222 8.85338 5.61107 8.57867C5.19995 8.30397 4.87952 7.91352 4.6903 7.45671C4.50108 6.99989 4.45157 6.49723 4.54804 6.01227C4.6445 5.52732 4.8826 5.08186 5.23223 4.73223C5.58186 4.3826 6.02732 4.1445 6.51227 4.04804C6.99723 3.95157 7.49989 4.00108 7.95671 4.1903C8.41352 4.37952 8.80397 4.69995 9.07867 5.11107C9.35338 5.5222 9.5 6.00555 9.5 6.5C9.49928 7.16282 9.23565 7.79828 8.76697 8.26697C8.29828 8.73565 7.66282 8.99928 7 9Z"/>
  </symbol>

  <symbol id="phone__icon" viewBox="0 0 18 18">
    <path d="M14.1892 17.772C13.4313 17.772 12.3666 17.4979 10.7724 16.6073C8.8337 15.5204 7.33417 14.5169 5.40598 12.5941C3.5469 10.7365 2.64221 9.53389 1.37604 7.23029C-0.0543778 4.62933 0.189461 3.26595 0.462032 2.68326C0.786633 1.98682 1.26577 1.57028 1.88507 1.15685C2.23683 0.926421 2.60908 0.728896 2.9971 0.566776C3.03593 0.550083 3.07204 0.534167 3.10427 0.519803C3.29646 0.433234 3.58767 0.302409 3.95654 0.442163C4.2027 0.534555 4.42247 0.72361 4.76648 1.06329C5.47199 1.75895 6.43608 3.30827 6.79174 4.06915C7.03053 4.58196 7.18856 4.92048 7.18895 5.30014C7.18895 5.74463 6.9653 6.08742 6.6939 6.45738C6.64303 6.52686 6.59256 6.59325 6.54363 6.65769C6.24815 7.04589 6.18331 7.15808 6.22602 7.3584C6.31261 7.76096 6.95831 8.95935 8.01948 10.018C9.08064 11.0766 10.2447 11.6814 10.6489 11.7676C10.8578 11.8123 10.9723 11.7447 11.373 11.4388C11.4305 11.3949 11.4895 11.3495 11.5513 11.3041C11.9652 10.9963 12.2921 10.7785 12.7262 10.7785H12.7285C13.1063 10.7785 13.4297 10.9423 13.9656 11.2125C14.6645 11.565 16.2607 12.5165 16.9607 13.2226C17.3013 13.5658 17.4911 13.7847 17.5839 14.0304C17.7237 14.4004 17.5921 14.6904 17.5063 14.8845C17.4919 14.9167 17.476 14.952 17.4593 14.9913C17.2959 15.3785 17.0971 15.7499 16.8656 16.1007C16.4529 16.718 16.0347 17.1959 15.3366 17.5208C14.9781 17.6903 14.5858 17.7762 14.1892 17.772Z"/>
  </symbol>

  <symbol id="facebook__icon">
    <path d="M7.54888 20V10.8777H10.6096L11.0688 7.32156H7.54888V5.05147C7.54888 4.0222 7.83353 3.32076 9.31117 3.32076L11.1927 3.31999V0.13923C10.8673 0.0969453 9.75039 0 8.45039 0C5.7358 0 3.87733 1.65697 3.87733 4.69927V7.32156H0.807312V10.8777H3.87733V20H7.54888Z"/>
  </symbol>

  <symbol id="vk__icon">
    <path d="M17.2127 7.53743C17.8762 8.18515 18.5764 8.79456 19.1714 9.5076C19.4342 9.82446 19.6831 10.1514 19.8735 10.5192C20.1432 11.0419 19.8989 11.6171 19.4302 11.6484L16.5165 11.647C15.765 11.7094 15.1655 11.4069 14.6615 10.8931C14.2581 10.4822 13.8845 10.0449 13.4966 9.6201C13.3376 9.44649 13.1711 9.28313 12.9723 9.154C12.5745 8.89582 12.2293 8.97487 12.002 9.38971C11.7705 9.81165 11.718 10.2789 11.6952 10.7491C11.664 11.4352 11.4566 11.6156 10.7675 11.647C9.2946 11.7164 7.89679 11.4936 6.59826 10.7506C5.45343 10.0956 4.56566 9.17089 3.79296 8.12404C2.28849 6.0856 1.13637 3.84568 0.100885 1.54302C-0.132195 1.02422 0.0382615 0.745736 0.610676 0.735879C1.5612 0.717414 2.51158 0.718728 3.46322 0.734565C3.84954 0.740216 4.10529 0.961795 4.25445 1.32676C4.76871 2.59125 5.39797 3.7943 6.18782 4.90942C6.39817 5.20631 6.61265 5.50319 6.91808 5.71216C7.25597 5.94353 7.51323 5.86684 7.67218 5.49045C7.77305 5.25178 7.81721 4.99472 7.83995 4.7391C7.91525 3.85968 7.92517 2.98177 7.79309 2.10544C7.712 1.55852 7.40395 1.20447 6.85821 1.10097C6.57973 1.04821 6.62119 0.944579 6.75603 0.785623C6.99023 0.511474 7.21049 0.34082 7.64958 0.34082H10.9425C11.4609 0.443133 11.576 0.676016 11.647 1.19763L11.6498 4.85534C11.6441 5.05727 11.7506 5.6565 12.1144 5.79016C12.4055 5.88531 12.5973 5.65243 12.772 5.46784C13.5604 4.63107 14.1231 3.64217 14.6258 2.61819C14.8489 2.16793 15.0407 1.70033 15.2266 1.23312C15.3643 0.886424 15.5805 0.715837 15.971 0.723394L19.1402 0.726219C19.2342 0.726219 19.3292 0.727599 19.4202 0.743173C19.9543 0.834184 20.1006 1.06391 19.9357 1.5854C19.6758 2.40358 19.1701 3.0854 18.6757 3.77038C18.1472 4.50168 17.582 5.20795 17.0578 5.94359C16.5763 6.61536 16.6146 6.95398 17.2127 7.53743Z"/>
  </symbol>

  <symbol id="instagram__icon">
    <path d="M13.75 0H6.25C2.79875 0 0 2.79875 0 6.25V13.75C0 17.2013 2.79875 20 6.25 20H13.75C17.2013 20 20 17.2013 20 13.75V6.25C20 2.79875 17.2013 0 13.75 0ZM18.125 13.75C18.125 16.1625 16.1625 18.125 13.75 18.125H6.25C3.8375 18.125 1.875 16.1625 1.875 13.75V6.25C1.875 3.8375 3.8375 1.875 6.25 1.875H13.75C16.1625 1.875 18.125 3.8375 18.125 6.25V13.75Z"/>
    <path d="M10 5C7.23875 5 5 7.23875 5 10C5 12.7613 7.23875 15 10 15C12.7613 15 15 12.7613 15 10C15 7.23875 12.7613 5 10 5ZM10 13.125C8.2775 13.125 6.875 11.7225 6.875 10C6.875 8.27625 8.2775 6.875 10 6.875C11.7225 6.875 13.125 8.27625 13.125 10C13.125 11.7225 11.7225 13.125 10 13.125Z"/>
    <path d="M15.375 5.29099C15.743 5.29099 16.0412 4.9927 16.0412 4.62474C16.0412 4.25678 15.743 3.9585 15.375 3.9585C15.007 3.9585 14.7087 4.25678 14.7087 4.62474C14.7087 4.9927 15.007 5.29099 15.375 5.29099Z"/>
  </symbol>

  <symbol id="youtube__icon">
    <path d="M19.15 4.45C18.6075 3.485 18.0188 3.3075 16.82 3.24C15.6225 3.15875 12.6112 3.125 10.0025 3.125C7.38875 3.125 4.37625 3.15875 3.18 3.23875C1.98375 3.3075 1.39375 3.48375 0.84625 4.45C0.2875 5.41375 0 7.07375 0 9.99625C0 9.99875 0 10 0 10C0 10.0025 0 10.0038 0 10.0038V10.0063C0 12.9163 0.2875 14.5887 0.84625 15.5425C1.39375 16.5075 1.9825 16.6825 3.17875 16.7638C4.37625 16.8338 7.38875 16.875 10.0025 16.875C12.6112 16.875 15.6225 16.8337 16.8212 16.765C18.02 16.6837 18.6087 16.5088 19.1513 15.5438C19.715 14.59 20 12.9175 20 10.0075C20 10.0075 20 10.0038 20 10.0013C20 10.0013 20 9.99875 20 9.9975C20 7.07375 19.715 5.41375 19.15 4.45ZM7.5 13.75V6.25L13.75 10L7.5 13.75Z"/>
  </symbol>


  <symbol id="scrol-top__icon">
    <path d="M0.843018 6.407L6.50002 0.75L12.157 6.407L11.45 7.114L6.50002 2.164L1.55002 7.114L0.843018 6.407Z"/>
  </symbol>

  <symbol id="diagnostic__icon">
    <path d="M39.375 21.2881C39.375 18.6887 38.4681 16.195 36.8281 14.1937C37.2513 13.5206 37.5 12.7268 37.5 11.875C37.5 9.55496 35.6825 7.65559 33.3975 7.51371L33.3838 7.49996L36.5088 4.37496L32.5 0.366211L29.375 3.49121L28.75 2.86621L25.5112 6.10496C22.9794 2.66059 18.9875 0.624961 14.6838 0.624961H14.0662C6.65438 0.624961 0.625 6.65434 0.625 14.0662C0.625 17.6568 2.02312 21.0325 4.56187 23.5706L7.16563 26.1743C8.06813 27.0768 8.61063 28.2425 8.72563 29.4981C8.01188 29.7631 7.5 30.445 7.5 31.25C7.5 32.1143 8.09063 32.8368 8.8875 33.0525C8.80062 33.2687 8.75 33.5031 8.75 33.75C8.75 34.5637 9.27437 35.2512 10 35.51V36.25C10 37.9731 11.4019 39.375 13.125 39.375H15.625C17.3481 39.375 18.75 37.9731 18.75 36.25V35.51C19.4756 35.2512 20 34.5637 20 33.75C20 33.5031 19.9494 33.2687 19.8625 33.0525C20.6594 32.8362 21.25 32.1143 21.25 31.25C21.25 30.445 20.7381 29.7631 20.0244 29.4975C20.1363 28.2756 20.6562 27.1412 21.5156 26.25H25.9912L28.0169 28.2756L25.3269 35H39.375V27.5H37.4944C38.7119 25.6681 39.375 23.4968 39.375 21.2881ZM35.9494 27.5H31.4325C33.3338 25.2393 34.375 22.4131 34.375 19.4243C34.375 18.3212 34.2238 17.2312 33.9394 16.1712C34.7219 16.0231 35.4294 15.665 36.0056 15.1593C37.3731 16.9062 38.125 19.0537 38.125 21.2887C38.125 23.5375 37.3525 25.7431 35.9494 27.5ZM28.7638 11.6025L26.875 13.4912L23.3838 9.99996L28.75 4.63371L31.8162 7.69996C30.125 8.23183 28.8781 9.76621 28.7638 11.6025ZM22.5 10.8837L25.9912 14.375L25 15.3662L21.5088 11.875L22.5 10.8837ZM28.9506 13.1837C29.4631 14.8143 30.9056 16.0356 32.6537 16.2237C32.9606 17.2625 33.125 18.3362 33.125 19.4243C33.125 20.48 32.9731 21.5106 32.695 22.5H25.1463C27.0738 20.1181 28.125 17.1737 28.125 14.0662C28.125 14.0475 28.1244 14.0287 28.1244 14.0093L28.9506 13.1837ZM36.25 11.875C36.25 13.5981 34.8481 15 33.125 15C31.4019 15 30 13.5981 30 11.875C30 10.1518 31.4019 8.74996 33.125 8.74996C34.8481 8.74996 36.25 10.1518 36.25 11.875ZM32.5 2.13371L34.7412 4.37496L32.5 6.61621L30.2588 4.37496L32.5 2.13371ZM24.6144 7.00183L19.7413 11.875L25 17.1337L26.8088 15.325C26.5338 18.0225 25.3712 20.5237 23.4737 22.5H18.125V23.125C18.125 24.4337 18.9356 25.5531 20.08 26.0181C19.345 26.9975 18.8944 28.1493 18.7806 29.375H18.69C18.44 27.5606 17.38 25.9518 15.8406 25.0006C17.6219 23.9075 18.75 21.9556 18.75 19.7975V17.7025C18.75 15.545 17.6225 13.5931 15.8413 12.5C17.6225 11.4068 18.75 9.45496 18.75 7.29746V2.57496C21.0863 3.39934 23.1375 4.92746 24.6144 7.00183ZM17.5 5.62496H11.25V4.37496H17.5V5.62496ZM17.5 6.87496V7.29746C17.5 7.57871 17.4719 7.85496 17.4256 8.12496H11.325C11.2781 7.85433 11.25 7.57871 11.25 7.29746V6.87496H17.5ZM17.025 9.37496C16.5 10.4825 15.565 11.3675 14.375 11.8237C13.1844 11.3675 12.2494 10.4831 11.725 9.37496H17.025ZM14.375 13.1762C15.5656 13.6325 16.5006 14.5168 17.025 15.625H11.725C12.2494 14.5175 13.1844 13.6331 14.375 13.1762ZM11.25 17.7025C11.25 17.4212 11.2781 17.145 11.3244 16.875H17.425C17.4719 17.1456 17.5 17.4212 17.5 17.7025V18.125H11.25V17.7025ZM17.5 19.375V19.7975C17.5 20.0787 17.4719 20.355 17.4256 20.625H11.325C11.2781 20.3543 11.25 20.0787 11.25 19.7975V19.375H17.5ZM17.025 21.875C16.5 22.9825 15.565 23.8675 14.375 24.3237C13.1844 23.8675 12.2494 22.9831 11.725 21.875H17.025ZM14.375 25.6762C15.065 25.9412 15.6713 26.3531 16.1625 26.875H12.5875C13.0787 26.3531 13.685 25.9412 14.375 25.6762ZM11.7338 28.125H17.0169C17.205 28.5193 17.3463 28.9368 17.4225 29.375H11.3281C11.4044 28.9368 11.545 28.5193 11.7338 28.125ZM14.6838 1.87496C15.645 1.87496 16.5881 1.99121 17.5 2.20684V3.12496H11.25V2.21621C12.1556 2.00121 13.0956 1.87496 14.0662 1.87496H14.6838ZM5.44563 22.6868C3.14313 20.3837 1.875 17.3225 1.875 14.0662C1.875 8.77121 5.27375 4.26684 10 2.58684V7.29683C10 9.45434 11.1275 11.4062 12.9087 12.4993C11.1275 13.5931 10 15.545 10 17.7025V19.7975C10 21.9556 11.1281 23.9075 12.91 25.0006C11.3706 25.9518 10.3106 27.5606 10.0606 29.375H9.97C9.8275 27.8318 9.15938 26.4 8.05 25.2906L5.44563 22.6868ZM15.625 38.125H13.125C12.0913 38.125 11.25 37.2837 11.25 36.25V35.625H17.5V36.25C17.5 37.2837 16.6588 38.125 15.625 38.125ZM18.125 34.375H10.625C10.28 34.375 10 34.095 10 33.75C10 33.405 10.28 33.125 10.625 33.125H18.125C18.47 33.125 18.75 33.405 18.75 33.75C18.75 34.095 18.47 34.375 18.125 34.375ZM19.375 31.875H18.125H10.625H9.375C9.03 31.875 8.75 31.595 8.75 31.25C8.75 30.905 9.03 30.625 9.375 30.625H19.375C19.72 30.625 20 30.905 20 31.25C20 31.595 19.72 31.875 19.375 31.875ZM21.25 25C20.435 25 19.74 24.4775 19.4819 23.75H32.2725C31.7106 25.1112 30.88 26.3612 29.8075 27.4343L29.7412 27.5H29.0088L26.5088 25H21.25ZM38.125 33.75H27.1731L29.1731 28.75H38.125V33.75Z"/>
  </symbol>

  <symbol id="biopsy__icon">
    <path d="M35.9923 16.5938C33.7869 16.5938 31.9924 18.3883 31.9924 20.5937V24.9986C31.3389 24.812 30.6575 24.7526 29.9842 24.8213V18.4496H30.3844C30.8167 18.4496 31.1663 18.0984 31.1663 17.6669V13.1047C31.1663 12.6731 30.8165 12.3228 30.3844 12.3228H25.885L26.9617 5.58952C26.9907 5.40709 26.9403 5.23526 26.8594 5.08642C26.8594 5.07712 26.8625 5.06885 26.8625 5.05955C26.8625 2.17923 20.1316 0.671753 13.4832 0.671753C6.83475 0.671753 0.104649 2.17923 0.104649 5.05981C0.104649 5.06291 0.106974 5.06575 0.106974 5.06885C0.0237718 5.2195 -0.021447 5.39107 0.0100769 5.57298L4.82032 34.1902C4.81877 34.2054 4.81128 34.2204 4.81128 34.2328C4.81128 36.6765 10.2597 37.3286 13.4832 37.3286C16.5247 37.3286 20.5105 36.7878 21.7582 35.2682C21.7613 35.2648 21.7642 35.2648 21.7673 35.262L21.7688 35.2589C21.7719 35.2589 21.7719 35.2589 21.7719 35.2558C21.7786 35.2499 21.7786 35.2421 21.7851 35.2362C21.8401 35.1659 21.8745 35.0863 21.9156 35.0116H29.2038C29.3353 35.0116 29.4498 34.9718 29.5614 34.9137C29.8759 34.9747 30.1997 35.0116 30.5296 35.0116C31.6658 35.0116 32.7319 34.6266 33.6223 33.9514C34.3066 34.4602 35.1283 34.7488 35.9988 34.7488C38.2042 34.7488 40.0003 32.9558 40.0003 30.7502V20.5909C39.9922 18.3886 38.2008 16.5938 35.9923 16.5938ZM35.9923 18.1578C37.3347 18.1578 38.43 19.2501 38.43 20.594V24.7239H33.5593V20.594C33.5577 19.2501 34.6515 18.1578 35.9923 18.1578ZM33.0769 27.3554C34.2712 28.5711 34.4148 30.4298 33.5257 31.8044L28.6354 26.8316C29.1974 26.4805 29.8449 26.2864 30.5232 26.2864C31.4929 26.2877 32.4001 26.6634 33.0769 27.3554ZM28.4199 20.5971H20.1924C19.7609 20.5971 19.4105 20.9482 19.4105 21.379C19.4105 21.8097 19.7609 22.1609 20.1924 22.1609H28.4199V23.7159H22.3779C21.9471 23.7159 21.5967 24.0671 21.5967 24.4978C21.5967 24.9283 21.9471 25.2794 22.3779 25.2794H28.2917C27.7938 25.5102 27.3235 25.8017 26.9189 26.1991C26.7189 26.3947 26.5506 26.6159 26.3871 26.8345H22.3779C21.9471 26.8345 21.5967 27.1856 21.5967 27.6164C21.5967 28.0487 21.9471 28.3983 22.3779 28.3983H25.6189C25.4814 28.8595 25.3868 29.3329 25.3837 29.8249C25.3837 29.8693 25.3959 29.9104 25.3974 29.9548H22.3779C21.9471 29.9548 21.5967 30.3047 21.5967 30.7365C21.5967 31.169 21.9471 31.5186 22.3779 31.5186H25.6724C25.9137 32.2318 26.2954 32.8915 26.8362 33.4476H16.1245V18.4496H28.4186L28.4199 20.5971ZM29.6051 16.8847H14.9439V13.8868H29.6051V16.8847ZM13.4814 2.23556C21.1278 2.23556 25.2967 4.10117 25.2967 5.05955C25.2967 6.01871 21.1278 7.88432 13.4814 7.88432C5.83658 7.88432 1.66689 6.01871 1.66689 5.05955C1.6687 4.10142 5.83813 2.23556 13.4814 2.23556ZM6.37817 34.2359C6.38282 34.1778 6.39729 34.1199 6.38411 34.0587L1.89686 7.36831C4.33971 8.73986 8.92851 9.44838 13.4829 9.44838C18.0511 9.44838 22.6605 8.73676 25.0967 7.3559L24.3024 12.3228H14.1604C13.7305 12.3228 13.3785 12.6731 13.3785 13.1047V17.6666C13.3785 18.0981 13.7305 18.4493 14.1604 18.4493H14.5607V34.2266C14.5607 34.6605 14.9126 35.0085 15.3426 35.0085H19.1823C17.9689 35.4209 16.026 35.763 13.4816 35.7646C8.85228 35.7664 6.52985 34.6636 6.37817 34.2359ZM27.9741 32.377C27.3036 31.6974 26.9385 30.7946 26.9475 29.8404C26.9553 29.1515 27.1599 28.4965 27.5248 27.9282L32.4092 32.8936C31.0286 33.7227 29.1258 33.5488 27.9741 32.377ZM35.9923 33.185C35.537 33.185 35.105 33.0535 34.7231 32.8199C36.1174 30.836 35.9559 28.0869 34.2117 26.2846H38.4269V30.7504C38.4284 32.0946 37.3362 33.185 35.9923 33.185Z"/>
  </symbol>

  <symbol id="operation__icon">
    <path d="M36.875 1.25H24.375C23.8777 1.25 23.4008 1.44754 23.0492 1.79917C22.6975 2.15081 22.5 2.62772 22.5 3.125V3.76187C21.5723 3.06151 20.4677 2.63373 19.3103 2.5266C18.1528 2.41947 16.9885 2.63723 15.948 3.15542C14.9075 3.67361 14.0321 4.47169 13.4202 5.45998C12.8084 6.44828 12.4842 7.58762 12.4842 8.75C12.4842 9.91238 12.8084 11.0517 13.4202 12.04C14.0321 13.0283 14.9075 13.8264 15.948 14.3446C16.9885 14.8628 18.1528 15.0805 19.3103 14.9734C20.4677 14.8663 21.5723 14.4385 22.5 13.7381V19.375C22.5 19.8723 22.6975 20.3492 23.0492 20.7008C23.4008 21.0525 23.8777 21.25 24.375 21.25H26.25V23.75C26.25 23.9158 26.3158 24.0747 26.4331 24.1919C26.5503 24.3092 26.7092 24.375 26.875 24.375H27.5V25C27.5 25.4973 27.6975 25.9742 28.0492 26.3258C28.4008 26.6775 28.8777 26.875 29.375 26.875H31.25C31.4158 26.875 31.5747 26.9408 31.6919 27.0581C31.8092 27.1753 31.875 27.3342 31.875 27.5V28.75H14.5225L12.3406 27.6594L11.1844 25.3469C11.1326 25.2427 11.0529 25.1551 10.954 25.0938C10.8552 25.0326 10.7413 25.0001 10.625 25H8.125C7.62772 25 7.1508 25.1975 6.79917 25.5492C6.44754 25.9008 6.25 26.3777 6.25 26.875V27.5H3.05812C2.81159 27.4874 2.56523 27.5279 2.33565 27.6186C2.10607 27.7093 1.89862 27.8482 1.72726 28.0259C1.55591 28.2036 1.42464 28.416 1.34231 28.6487C1.25998 28.8814 1.2285 29.1291 1.25 29.375C1.26372 29.8314 1.44582 30.2667 1.76125 30.5969C1.43726 30.9366 1.25455 31.3868 1.25014 31.8562C1.24573 32.3257 1.41995 32.7792 1.7375 33.125C1.55325 33.3261 1.41556 33.5653 1.33422 33.8256C1.25288 34.086 1.22989 34.361 1.26688 34.6313C1.30387 34.9015 1.39994 35.1602 1.54825 35.3891C1.69656 35.618 1.89348 35.8114 2.125 35.9556C1.96302 36.2351 1.87684 36.552 1.875 36.875C1.875 37.3723 2.07254 37.8492 2.42417 38.2008C2.7758 38.5525 3.25272 38.75 3.75 38.75H11.875C11.9717 38.7511 12.0673 38.7297 12.1544 38.6875L14.5225 37.5H38.125C38.2908 37.5 38.4497 37.4342 38.5669 37.3169C38.6842 37.1997 38.75 37.0408 38.75 36.875V29.375C38.75 29.2092 38.6842 29.0503 38.5669 28.9331C38.4497 28.8158 38.2908 28.75 38.125 28.75H33.125V27.5C33.125 27.0027 32.9275 26.5258 32.5758 26.1742C32.2242 25.8225 31.7473 25.625 31.25 25.625H29.375C29.2092 25.625 29.0503 25.5592 28.9331 25.4419C28.8159 25.3247 28.75 25.1658 28.75 25V24.375H29.375C29.5408 24.375 29.6997 24.3092 29.8169 24.1919C29.9342 24.0747 30 23.9158 30 23.75V21.25H31.25V22.5C31.25 22.6658 31.3159 22.8247 31.4331 22.9419C31.5503 23.0592 31.7092 23.125 31.875 23.125H34.375C34.5408 23.125 34.6997 23.0592 34.8169 22.9419C34.9342 22.8247 35 22.6658 35 22.5V21.25H36.875C37.3723 21.25 37.8492 21.0525 38.2008 20.7008C38.5525 20.3492 38.75 19.8723 38.75 19.375V3.125C38.75 2.62772 38.5525 2.15081 38.2008 1.79917C37.8492 1.44754 37.3723 1.25 36.875 1.25ZM30.625 30H31.875V31.875C31.875 32.0408 31.8092 32.1997 31.6919 32.3169C31.5747 32.4341 31.4158 32.5 31.25 32.5H30.625V30ZM26.875 33.75H25.1475L24.375 33.3637V32.8862L25.1475 32.5H26.875V33.75ZM26.875 31.25H25C24.9033 31.2489 24.8077 31.2703 24.7206 31.3125L23.4706 31.9375C23.3663 31.9896 23.2786 32.07 23.2175 32.1694C23.1564 32.2688 23.1244 32.3833 23.125 32.5H21.875V31.875C21.875 31.7092 21.8092 31.5503 21.6919 31.4331C21.5747 31.3158 21.4158 31.25 21.25 31.25H18.75C18.5842 31.25 18.4253 31.3158 18.3081 31.4331C18.1908 31.5503 18.125 31.7092 18.125 31.875V34.375C18.125 34.5408 18.1908 34.6997 18.3081 34.8169C18.4253 34.9342 18.5842 35 18.75 35H21.25C21.4158 35 21.5747 34.9342 21.6919 34.8169C21.8092 34.6997 21.875 34.5408 21.875 34.375V33.75H23.125C23.1244 33.8667 23.1564 33.9812 23.2175 34.0806C23.2786 34.18 23.3663 34.2603 23.4706 34.3125L24.7206 34.9375C24.8077 34.9797 24.9033 35.0011 25 35H26.875V36.25H14.375C14.2783 36.2489 14.1827 36.2703 14.0956 36.3125L11.7275 37.5H3.75C3.58424 37.5 3.42527 37.4342 3.30806 37.3169C3.19085 37.1997 3.125 37.0408 3.125 36.875C3.125 36.7092 3.19085 36.5503 3.30806 36.4331C3.42527 36.3158 3.58424 36.25 3.75 36.25H8.125V35H3.125C2.95924 35 2.80027 34.9342 2.68306 34.8169C2.56585 34.6997 2.5 34.5408 2.5 34.375C2.5 34.2092 2.56585 34.0503 2.68306 33.9331C2.80027 33.8158 2.95924 33.75 3.125 33.75H8.75V32.5H3.125C2.95924 32.5 2.80027 32.4341 2.68306 32.3169C2.56585 32.1997 2.5 32.0408 2.5 31.875C2.5 31.7092 2.56585 31.5503 2.68306 31.4331C2.80027 31.3158 2.95924 31.25 3.125 31.25H9.375V30H3.125C2.96767 29.9764 2.82208 29.9029 2.70958 29.7904C2.59709 29.6779 2.52363 29.5323 2.5 29.375C2.5 28.8544 2.71375 28.75 3.05812 28.75H8.75V27.5H7.5V26.875C7.5 26.7092 7.56585 26.5503 7.68306 26.4331C7.80027 26.3158 7.95924 26.25 8.125 26.25H10.2387L11.3156 28.4044C11.3761 28.5256 11.4744 28.6239 11.5956 28.6844L14.0956 29.9344C14.1824 29.9776 14.278 30.0001 14.375 30H26.875V31.25ZM20.625 32.5V33.75H19.375V32.5H20.625ZM29.375 36.25H28.125V30H29.375V36.25ZM33.125 31.875V30H37.5V36.25H30.625V33.75H31.25C31.7473 33.75 32.2242 33.5525 32.5758 33.2008C32.9275 32.8492 33.125 32.3723 33.125 31.875ZM18.75 13.75C17.7611 13.75 16.7944 13.4568 15.9721 12.9073C15.1499 12.3579 14.509 11.577 14.1306 10.6634C13.7522 9.74979 13.6531 8.74445 13.8461 7.77455C14.039 6.80464 14.5152 5.91373 15.2145 5.21447C15.9137 4.5152 16.8046 4.039 17.7745 3.84607C18.7445 3.65315 19.7498 3.75216 20.6634 4.1306C21.577 4.50904 22.3579 5.1499 22.9073 5.97215C23.4568 6.79439 23.75 7.76109 23.75 8.75C23.7485 10.0756 23.2213 11.3465 22.2839 12.2839C21.3465 13.2212 20.0756 13.7485 18.75 13.75ZM37.5 19.375C37.5 19.5408 37.4342 19.6997 37.3169 19.8169C37.1997 19.9342 37.0408 20 36.875 20H34.375C34.2092 20 34.0503 20.0658 33.9331 20.1831C33.8159 20.3003 33.75 20.4592 33.75 20.625V21.875H32.5V20.625C32.5 20.4592 32.4342 20.3003 32.3169 20.1831C32.1997 20.0658 32.0408 20 31.875 20H29.375C29.2092 20 29.0503 20.0658 28.9331 20.1831C28.8159 20.3003 28.75 20.4592 28.75 20.625V23.125H27.5V20.625C27.5 20.4592 27.4342 20.3003 27.3169 20.1831C27.1997 20.0658 27.0408 20 26.875 20H24.375C24.2092 20 24.0503 19.9342 23.9331 19.8169C23.8158 19.6997 23.75 19.5408 23.75 19.375V12.4837C24.5612 11.408 25 10.0973 25 8.75C25 7.40267 24.5612 6.09199 23.75 5.01625V3.125C23.75 2.95924 23.8158 2.80027 23.9331 2.68306C24.0503 2.56585 24.2092 2.5 24.375 2.5H36.875C37.0408 2.5 37.1997 2.56585 37.3169 2.68306C37.4342 2.80027 37.5 2.95924 37.5 3.125V19.375Z"/>
    <path d="M25.625 18.7502H35.625C35.7908 18.7502 35.9497 18.6844 36.0669 18.5672C36.1842 18.45 36.25 18.291 36.25 18.1252V4.37524C36.25 4.20948 36.1842 4.05051 36.0669 3.9333C35.9497 3.81609 35.7908 3.75024 35.625 3.75024H25.625C25.4592 3.75024 25.3003 3.81609 25.1831 3.9333C25.0658 4.05051 25 4.20948 25 4.37524V18.1252C25 18.291 25.0658 18.45 25.1831 18.5672C25.3003 18.6844 25.4592 18.7502 25.625 18.7502ZM26.25 5.00024H35V6.31899C34.6859 6.3784 34.3822 6.48369 34.0987 6.63149C33.7985 6.79132 33.4636 6.87491 33.1234 6.87491C32.7833 6.87491 32.4484 6.79132 32.1481 6.63149C31.6763 6.38757 31.153 6.26027 30.6219 6.26027C30.0908 6.26027 29.5674 6.38757 29.0956 6.63149C28.7961 6.7911 28.4619 6.87458 28.1225 6.87458C27.7831 6.87458 27.4489 6.7911 27.1494 6.63149C26.8664 6.48419 26.5634 6.37891 26.25 6.31899V5.00024ZM26.25 7.60024C26.3691 7.6441 26.4853 7.69524 26.5981 7.75337C27.0692 7.99763 27.5921 8.12512 28.1228 8.12512C28.6535 8.12512 29.1764 7.99763 29.6475 7.75337C29.9475 7.59392 30.2821 7.51053 30.6219 7.51053C30.9616 7.51053 31.2962 7.59392 31.5963 7.75337C32.068 7.9973 32.5914 8.12459 33.1225 8.12459C33.6536 8.12459 34.177 7.9973 34.6488 7.75337C34.7625 7.69489 34.8798 7.64354 35 7.59962V17.5002H26.25V7.60024Z"/>
    <path d="M7.1025 7.61325C6.92839 7.43911 6.72167 7.30097 6.49417 7.20672C6.26666 7.11247 6.02282 7.06396 5.77656 7.06396C5.53031 7.06396 5.28646 7.11247 5.05896 7.20672C4.83145 7.30097 4.62474 7.43911 4.45062 7.61325L1.79938 10.2645C1.45783 10.6181 1.26884 11.0918 1.27311 11.5834C1.27738 12.075 1.47458 12.5453 1.82222 12.8929C2.16986 13.2406 2.64013 13.4377 3.13175 13.442C3.62337 13.4463 4.097 13.2573 4.45062 12.9158L5.335 13.8001L4.00875 15.1251C3.89158 15.2423 3.82576 15.4013 3.82576 15.567C3.82576 15.7327 3.89158 15.8917 4.00875 16.0089L5.77687 17.7764C5.89408 17.8935 6.05302 17.9594 6.21875 17.9594C6.38448 17.9594 6.54342 17.8935 6.66062 17.7764L7.1025 17.3345L11.9644 22.1964C12.0389 22.2568 12.1208 22.3074 12.2081 22.347L14.7194 23.1876L15.5 23.9645C15.7725 24.2397 16.1245 24.4226 16.5064 24.4873C16.8882 24.552 17.2808 24.4953 17.6287 24.3251L21.245 27.942L22.1287 27.0583L18.5125 23.4408C18.6783 23.0925 18.7326 22.7015 18.668 22.3213C18.6035 21.941 18.4233 21.5898 18.1519 21.3158L17.3712 20.5358L16.5344 18.0239C16.495 17.9362 16.4443 17.8541 16.3837 17.7795L11.5225 12.9183L11.9644 12.4764C12.0815 12.3592 12.1474 12.2002 12.1474 12.0345C12.1474 11.8688 12.0815 11.7098 11.9644 11.5926L10.1962 9.82513C10.079 9.70796 9.9201 9.64214 9.75437 9.64214C9.58865 9.64214 9.4297 9.70796 9.3125 9.82513L7.98687 11.1508L7.10312 10.267C7.27751 10.0928 7.41584 9.88595 7.5102 9.65825C7.60456 9.43055 7.65309 9.18648 7.65304 8.94C7.65298 8.69352 7.60432 8.44947 7.50986 8.22181C7.41539 7.99416 7.27696 7.78736 7.1025 7.61325ZM3.56687 12.032C3.44967 12.1492 3.29073 12.215 3.125 12.215C2.95927 12.215 2.80033 12.1492 2.68313 12.032C2.56615 11.9148 2.50045 11.756 2.50045 11.5904C2.50045 11.4249 2.56615 11.2661 2.68313 11.1489L5.33437 8.50013C5.39203 8.44043 5.46099 8.39282 5.53725 8.36006C5.6135 8.32731 5.69551 8.31007 5.7785 8.30935C5.86149 8.30862 5.94379 8.32444 6.0206 8.35586C6.09741 8.38729 6.16719 8.4337 6.22587 8.49238C6.28455 8.55106 6.33096 8.62085 6.36239 8.69766C6.39381 8.77447 6.40963 8.85677 6.40891 8.93975C6.40818 9.02274 6.39094 9.10475 6.35819 9.181C6.32543 9.25726 6.27782 9.32622 6.21812 9.38388L3.56687 12.032ZM5.33437 12.032L6.21875 11.1483L7.1025 12.032L6.21875 12.9164L5.33437 12.032ZM16.825 21.7551L17.2669 22.197C17.3266 22.2547 17.3742 22.3236 17.4069 22.3999C17.4397 22.4761 17.4569 22.5581 17.4577 22.6411C17.4584 22.7241 17.4426 22.8064 17.4111 22.8832C17.3797 22.96 17.3333 23.0298 17.2746 23.0885C17.2159 23.1472 17.1462 23.1936 17.0693 23.225C16.9925 23.2564 16.9102 23.2723 16.8272 23.2715C16.7443 23.2708 16.6622 23.2536 16.586 23.2208C16.5097 23.1881 16.4408 23.1404 16.3831 23.0808L15.9412 22.6389L16.825 21.7551ZM16.1094 20.702L14.8881 21.9233L13.5631 21.482L15.6681 19.3751L16.1094 20.702ZM11.5219 14.6839L10.6381 15.5676L11.5219 16.4514L12.4056 15.5676L13.29 16.4514L12.4062 17.3351L13.29 18.2189L14.1737 17.3351L15.0575 18.2189L12.4062 20.8714L7.98625 16.4514L10.6381 13.7995L11.5219 14.6839ZM9.75375 11.1483L10.6381 12.032L6.21875 16.4514L5.33437 15.5676L9.75375 11.1483Z"/>
    <path d="M21.875 6.87561H20.625V5.62561C20.625 5.45985 20.5592 5.30088 20.4419 5.18367C20.3247 5.06646 20.1658 5.00061 20 5.00061H17.5C17.3342 5.00061 17.1753 5.06646 17.0581 5.18367C16.9408 5.30088 16.875 5.45985 16.875 5.62561V6.87561H15.625C15.4592 6.87561 15.3003 6.94146 15.1831 7.05867C15.0658 7.17588 15 7.33485 15 7.50061V10.0006C15 10.1664 15.0658 10.3253 15.1831 10.4426C15.3003 10.5598 15.4592 10.6256 15.625 10.6256H16.875V11.8756C16.875 12.0414 16.9408 12.2003 17.0581 12.3176C17.1753 12.4348 17.3342 12.5006 17.5 12.5006H20C20.1658 12.5006 20.3247 12.4348 20.4419 12.3176C20.5592 12.2003 20.625 12.0414 20.625 11.8756V10.6256H21.875C22.0408 10.6256 22.1997 10.5598 22.3169 10.4426C22.4342 10.3253 22.5 10.1664 22.5 10.0006V7.50061C22.5 7.33485 22.4342 7.17588 22.3169 7.05867C22.1997 6.94146 22.0408 6.87561 21.875 6.87561ZM21.25 9.37561H20C19.8342 9.37561 19.6753 9.44146 19.5581 9.55867C19.4408 9.67588 19.375 9.83485 19.375 10.0006V11.2506H18.125V10.0006C18.125 9.83485 18.0592 9.67588 17.9419 9.55867C17.8247 9.44146 17.6658 9.37561 17.5 9.37561H16.25V8.12561H17.5C17.6658 8.12561 17.8247 8.05976 17.9419 7.94255C18.0592 7.82534 18.125 7.66637 18.125 7.50061V6.25061H19.375V7.50061C19.375 7.66637 19.4408 7.82534 19.5581 7.94255C19.6753 8.05976 19.8342 8.12561 20 8.12561H21.25V9.37561Z"/>
    <path d="M33.75 15H32.5V16.25H33.75V15Z"/>
    <path d="M31.25 15H30V16.25H31.25V15Z"/>
  </symbol>

  <symbol id="rehabilitation__icon">

    <path d="M37.2633 29.0855L32.3819 14.2963C32.5605 13.961 32.6553 13.585 32.6552 13.1944C32.6552 12.7775 32.5454 12.386 32.3541 12.0465L34.2386 8.15096C34.2413 8.14533 34.2432 8.13955 34.2458 8.13393C34.2473 8.13065 34.2494 8.12776 34.2508 8.12447L36.3428 3.35424C36.6134 2.78783 36.647 2.15096 36.437 1.55862C36.2253 0.961428 35.7927 0.485022 35.2188 0.217131L35.2189 0.217209C34.0679 -0.320291 32.6782 0.171975 32.1214 1.31471C32.1179 1.32182 32.1145 1.32901 32.1113 1.33619L29.3409 7.49018C29.232 7.73197 29.2532 8.01244 29.3972 8.23518C29.5411 8.45783 29.7882 8.59229 30.0533 8.59229L32.2894 8.59213L31.1266 10.9958C30.8727 10.9013 30.5982 10.8494 30.3118 10.8494H13.9433C12.6511 10.8494 11.5998 11.9015 11.5998 13.1947C11.5998 14.4879 12.6511 15.54 13.9433 15.54H27.7296L28.7367 18.5178C28.8445 18.8358 29.1414 19.049 29.4773 19.049C29.5616 19.049 29.646 19.0349 29.7273 19.0076C30.1351 18.8701 30.3546 18.4256 30.2172 18.0177C30.2172 18.0177 30.2172 18.0169 30.2163 18.0169L29.4285 15.54H30.3118C30.602 15.54 30.8839 15.487 31.1473 15.3866L35.7796 29.5756C35.807 29.6576 35.8203 29.7388 35.8203 29.824C35.8203 29.8519 35.8186 29.9263 35.8154 29.9964C35.6315 29.7234 35.4177 29.4693 35.1741 29.2417C34.7313 28.8278 34.2101 28.5139 33.6481 28.3134L32.4695 24.6783C32.3616 24.3611 32.0648 24.1478 31.7296 24.1478C31.6445 24.1478 31.5601 24.1612 31.4788 24.1885C31.2812 24.2557 31.121 24.3956 31.0288 24.5823C30.9366 24.7698 30.9226 24.9816 30.989 25.1792L31.9635 28.0615C31.9328 28.0629 31.9022 28.0632 31.8714 28.0653L5.90609 29.8202C4.06187 29.9449 2.61719 31.4918 2.61719 33.3419C2.61719 35.2881 4.19922 36.8716 6.14375 36.8716H7.69438V39.2382C7.69438 39.6587 8.04414 39.9996 8.47563 39.9996H31.9086C32.34 39.9996 32.6898 39.6587 32.6898 39.2382V36.8396C34.8732 36.5804 36.5723 34.7174 36.5723 32.4634C36.5723 32.1924 36.5457 31.9238 36.4966 31.6604C36.6797 31.5149 36.8409 31.3419 36.975 31.1451C37.2413 30.7537 37.382 30.2966 37.3828 29.8239C37.3828 29.5731 37.3421 29.3246 37.2633 29.0855ZM33.5303 1.99049C33.7189 1.61588 34.1776 1.45573 34.5579 1.63307C34.5579 1.63315 34.558 1.63315 34.558 1.63315C34.7493 1.72252 34.8937 1.88143 34.9643 2.0808C35.0351 2.28057 35.023 2.49549 34.9304 2.68604C34.9259 2.69526 34.9216 2.70455 34.9174 2.71393L33.0247 7.02947L31.2617 7.02963L33.5303 1.99049ZM13.1623 13.1946C13.1623 12.7631 13.5127 12.412 13.9433 12.412H30.3118C30.7424 12.412 31.0927 12.763 31.0927 13.1946C31.0927 13.4038 31.0114 13.6005 30.8637 13.7483C30.7162 13.896 30.5202 13.9773 30.3118 13.9773H13.9433C13.5127 13.9774 13.1623 13.6262 13.1623 13.1946ZM9.2568 38.4769V36.8716H31.1273V38.4769H9.2568ZM32.1683 35.309H6.14375C5.06078 35.309 4.17969 34.4266 4.17969 33.342C4.17969 32.3109 4.9843 31.4488 6.01148 31.3793L31.9769 29.6242C32.0431 29.6197 32.1089 29.6175 32.1745 29.6175C32.8948 29.6175 33.5748 29.8855 34.1072 30.3831C34.6892 30.9272 35.0098 31.666 35.0098 32.4634C35.0098 34.0324 33.7352 35.309 32.1683 35.309Z"/>
    <path d="M30.6031 22.3801C30.6875 22.3801 30.7719 22.3661 30.8531 22.3388C31.0508 22.2716 31.211 22.1317 31.3031 21.945C31.3961 21.7583 31.4102 21.5458 31.343 21.3481C31.236 21.0309 30.9383 20.8176 30.6031 20.8176C30.518 20.8176 30.4336 20.8309 30.3531 20.8583C30.1547 20.9254 29.9953 21.0654 29.9032 21.2521C29.8102 21.4396 29.7961 21.6513 29.8633 21.849C29.9703 22.1668 30.268 22.3801 30.6031 22.3801Z"/>
    <path d="M8.46406 32.6806C8.04766 32.7041 7.72344 33.0479 7.72578 33.4643C7.72578 33.4776 7.72656 33.4917 7.72734 33.5041C7.75 33.9183 8.09219 34.2425 8.50625 34.2425C8.52109 34.2425 8.53594 34.2417 8.55 34.2409C8.96641 34.2183 9.29063 33.8737 9.28828 33.458C9.28828 33.4448 9.28828 33.4315 9.2875 33.4174C9.26328 32.9893 8.89375 32.6572 8.46406 32.6806Z"/>
    <path d="M31.8649 31.3813C31.6571 31.393 31.4657 31.4852 31.3265 31.6408C31.1867 31.7962 31.1171 31.9962 31.1281 32.2048C31.1516 32.619 31.4938 32.9432 31.9078 32.9432C31.9225 32.9432 31.9375 32.9424 31.9515 32.9416C32.3821 32.9181 32.7125 32.5486 32.689 32.1181C32.6648 31.69 32.2961 31.3564 31.8649 31.3813Z"/>
    <path d="M28.3546 31.5768L11.9742 32.4863C11.7657 32.4979 11.5742 32.5893 11.4352 32.7449C11.2961 32.9011 11.2258 33.1012 11.2375 33.3098C11.2602 33.7231 11.6024 34.0473 12.0164 34.0473C12.0313 34.0473 12.0461 34.0473 12.061 34.0465L28.4414 33.1371C28.65 33.1254 28.8414 33.0332 28.9805 32.8777C29.1195 32.7222 29.1899 32.5214 29.1781 32.3136C29.1547 31.8846 28.786 31.5518 28.3546 31.5768Z"/>
  </g>
  <defs>
    <clipPath id="clip0">
      <rect width="40" height="40" fill="white"/>
    </clipPath>
  </defs>
</symbol>

<symbol id="arrow__icon" width="15" height="13" viewBox="0 0 15 13" fill="none"
  xmlns="http://www.w3.org/2000/svg">
  <path d="M0 6H12.25L7 0.75L7.664 0L14.164 6.5L7.664 13L7 12.25L12.25 7H0V6Z" fill="white"/>
</symbol>

<symbol id="play__icon" viewBox="0 0 49 49" width="49" height="49">

  <g clip-path="url(#clip0)">
    <path d="M47.9904 12.7375C47.4256 10.6384 45.7706 8.98375 43.6718 8.41851C39.8374 7.36914 24.4995 7.36914 24.4995 7.36914C24.4995 7.36914 9.16204 7.36914 5.32758 8.37851C3.26922 8.94338 1.57386 10.6387 1.00899 12.7375C4.76837e-07 16.5716 4.76837e-07 24.5231 4.76837e-07 24.5231C4.76837e-07 24.5231 4.76837e-07 32.5147 1.00899 36.3087C1.57424 38.4075 3.22885 40.0625 5.32795 40.6277C9.20242 41.6771 24.4999 41.6771 24.4999 41.6771C24.4999 41.6771 39.8374 41.6771 43.6718 40.6677C45.771 40.1028 47.4256 38.4479 47.9908 36.3491C48.9998 32.5147 48.9998 24.5635 48.9998 24.5635C48.9998 24.5635 49.0402 16.5716 47.9904 12.7375Z"/>
    <path d="M19.6161 31.8692L32.3704 24.5232L19.6161 17.1772V31.8692Z" fill="white"/>
  </g>
  <defs>
    <clipPath id="clip0">
      <rect width="49" height="49" fill="white"/>
    </clipPath>
  </defs>
</symbol>


</svg>




