<svg width="49" height="49" viewBox="0 0 49 49" fill="none" xmlns="http://www.w3.org/2000/svg">
<g clip-path="url(#clip0)">
<path d="M47.9904 12.7375C47.4256 10.6384 45.7706 8.98375 43.6718 8.41851C39.8374 7.36914 24.4995 7.36914 24.4995 7.36914C24.4995 7.36914 9.16204 7.36914 5.32758 8.37851C3.26922 8.94338 1.57386 10.6387 1.00899 12.7375C4.76837e-07 16.5716 4.76837e-07 24.5231 4.76837e-07 24.5231C4.76837e-07 24.5231 4.76837e-07 32.5147 1.00899 36.3087C1.57424 38.4075 3.22885 40.0625 5.32795 40.6277C9.20242 41.6771 24.4999 41.6771 24.4999 41.6771C24.4999 41.6771 39.8374 41.6771 43.6718 40.6677C45.771 40.1028 47.4256 38.4479 47.9908 36.3491C48.9998 32.5147 48.9998 24.5635 48.9998 24.5635C48.9998 24.5635 49.0402 16.5716 47.9904 12.7375Z" fill="#FF0000"/>
<path d="M19.6161 31.8692L32.3704 24.5232L19.6161 17.1772V31.8692Z" fill="white"/>
</g>
<defs>
<clipPath id="clip0">
<rect width="49" height="49" fill="white"/>
</clipPath>
</defs>
</svg>
