<svg width="20" height="12" viewBox="0 0 20 12" fill="none" xmlns="http://www.w3.org/2000/svg">
<path fill-rule="evenodd" clip-rule="evenodd" d="M17.2127 7.53743C17.8762 8.18515 18.5764 8.79456 19.1714 9.5076C19.4342 9.82446 19.6831 10.1514 19.8735 10.5192C20.1432 11.0419 19.8989 11.6171 19.4302 11.6484L16.5165 11.647C15.765 11.7094 15.1655 11.4069 14.6615 10.8931C14.2581 10.4822 13.8845 10.0449 13.4966 9.6201C13.3376 9.44649 13.1711 9.28313 12.9723 9.154C12.5745 8.89582 12.2293 8.97487 12.002 9.38971C11.7705 9.81165 11.718 10.2789 11.6952 10.7491C11.664 11.4352 11.4566 11.6156 10.7675 11.647C9.2946 11.7164 7.89679 11.4936 6.59826 10.7506C5.45343 10.0956 4.56566 9.17089 3.79296 8.12404C2.28849 6.0856 1.13637 3.84568 0.100885 1.54302C-0.132195 1.02422 0.0382615 0.745736 0.610676 0.735879C1.5612 0.717414 2.51158 0.718728 3.46322 0.734565C3.84954 0.740216 4.10529 0.961795 4.25445 1.32676C4.76871 2.59125 5.39797 3.7943 6.18782 4.90942C6.39817 5.20631 6.61265 5.50319 6.91808 5.71216C7.25597 5.94353 7.51323 5.86684 7.67218 5.49045C7.77305 5.25178 7.81721 4.99472 7.83995 4.7391C7.91525 3.85968 7.92517 2.98177 7.79309 2.10544C7.712 1.55852 7.40395 1.20447 6.85821 1.10097C6.57973 1.04821 6.62119 0.944579 6.75603 0.785623C6.99023 0.511474 7.21049 0.34082 7.64958 0.34082H10.9425C11.4609 0.443133 11.576 0.676016 11.647 1.19763L11.6498 4.85534C11.6441 5.05727 11.7506 5.6565 12.1144 5.79016C12.4055 5.88531 12.5973 5.65243 12.772 5.46784C13.5604 4.63107 14.1231 3.64217 14.6258 2.61819C14.8489 2.16793 15.0407 1.70033 15.2266 1.23312C15.3643 0.886424 15.5805 0.715837 15.971 0.723394L19.1402 0.726219C19.2342 0.726219 19.3292 0.727599 19.4202 0.743173C19.9543 0.834184 20.1006 1.06391 19.9357 1.5854C19.6758 2.40358 19.1701 3.0854 18.6757 3.77038C18.1472 4.50168 17.582 5.20795 17.0578 5.94359C16.5763 6.61536 16.6146 6.95398 17.2127 7.53743Z" fill="white" fill-opacity="0.51"/>
</svg>
